<?xml version="1.0" standalone="no"?>
<!DOCTYPE svg PUBLIC "-//W3C//DTD SVG 20010904//EN"
 "http://www.w3.org/TR/2001/REC-SVG-20010904/DTD/svg10.dtd">
<svg version="1.0" xmlns="http://www.w3.org/2000/svg"
 width="700.000000pt" height="700.000000pt" viewBox="0 0 700.000000 700.000000"
 preserveAspectRatio="xMidYMid meet">
<metadata>
Created by potrace 1.14, written by Peter Selinger 2001-2017
</metadata>
<g transform="translate(0.000000,700.000000) scale(0.100000,-0.100000)"
fill="#000000" stroke="none">
<path d="M4607 6774 c-1 -1 -832 -4 -1847 -8 -1758 -5 -1905 -7 -1975 -22 -79
-17 -200 -90 -262 -157 -88 -95 -79 -168 35 -305 25 -30 61 -64 81 -76 63 -40
192 -64 431 -81 47 -4 121 -8 165 -10 44 -3 116 -7 160 -9 86 -6 215 -13 390
-21 199 -10 309 -15 410 -20 55 -3 145 -7 200 -10 55 -3 147 -8 205 -11 58 -4
137 -8 175 -9 75 -3 278 -13 410 -20 44 -3 130 -7 190 -10 61 -3 151 -7 200
-10 50 -3 140 -7 200 -10 61 -3 151 -8 200 -10 50 -3 126 -7 170 -10 290 -16
415 -26 536 -46 53 -8 69 -15 79 -33 11 -21 6 -32 -42 -107 -37 -56 -83 -110
-138 -159 -80 -72 -229 -213 -490 -466 -69 -66 -147 -140 -174 -165 -27 -24
-90 -84 -141 -134 -50 -49 -128 -124 -173 -165 -44 -41 -129 -122 -189 -179
-186 -180 -385 -370 -544 -521 -84 -80 -210 -200 -279 -267 -69 -66 -135 -129
-147 -140 -21 -17 -234 -220 -433 -413 -48 -47 -114 -109 -146 -139 -82 -75
-643 -631 -678 -672 -16 -19 -35 -41 -43 -50 -20 -24 -26 -93 -13 -148 14 -57
60 -110 99 -113 77 -4 157 5 203 23 41 16 182 121 353 261 6 5 433 347 950
760 517 413 956 764 975 780 19 16 40 32 45 36 21 16 271 215 293 233 13 11
109 89 215 174 497 398 684 548 702 563 11 9 68 55 125 102 58 46 107 87 110
90 3 3 97 79 210 169 113 90 214 171 225 180 11 9 67 54 125 101 58 47 107 87
110 90 3 3 41 35 85 70 44 35 82 67 85 70 3 3 28 23 55 44 146 116 228 247
227 366 0 142 -26 222 -106 324 -89 112 -331 233 -521 261 -22 4 -51 8 -65 11
-62 11 -234 16 -613 17 -225 1 -409 1 -410 1z"/>
<path d="M5653 4965 c-104 -31 -259 -135 -498 -334 -11 -9 -220 -177 -465
-373 -245 -195 -506 -405 -581 -464 -74 -60 -148 -119 -165 -131 -61 -46 -192
-150 -328 -261 -23 -18 -48 -39 -56 -45 -132 -104 -306 -243 -310 -247 -3 -3
-81 -67 -175 -141 -93 -73 -179 -141 -190 -151 -23 -19 -103 -84 -125 -101
-122 -96 -308 -244 -316 -253 -7 -5 -49 -39 -94 -75 -45 -35 -169 -134 -275
-219 -106 -85 -278 -222 -381 -305 -104 -82 -194 -154 -200 -160 -6 -5 -28
-23 -49 -40 -21 -16 -122 -97 -224 -178 -102 -82 -204 -163 -226 -180 -72 -56
-219 -213 -253 -269 -71 -119 -94 -248 -67 -366 36 -153 211 -286 505 -385 58
-20 119 -38 135 -41 17 -4 41 -9 55 -12 24 -6 1087 -6 3615 0 l1190 2 64 23
c35 12 88 38 119 57 65 42 150 127 167 169 17 39 4 113 -30 171 -50 85 -178
171 -296 198 -71 17 -133 21 -544 41 -60 3 -150 7 -200 10 -49 3 -137 7 -195
10 -58 3 -139 7 -180 10 -41 3 -129 7 -195 10 -131 7 -201 11 -375 20 -63 4
-146 8 -185 10 -103 5 -373 20 -545 30 -36 2 -117 7 -180 10 -63 3 -149 8
-190 11 -41 2 -115 7 -165 9 -49 3 -126 8 -170 10 -44 3 -120 7 -170 10 -201
12 -264 15 -355 20 -144 8 -249 27 -286 52 -44 30 -6 104 115 223 103 102 405
390 474 453 23 21 99 93 168 160 69 67 201 194 294 282 93 88 237 225 319 305
280 268 422 404 602 575 98 94 237 227 309 296 71 69 150 144 175 167 25 22
98 92 162 154 65 62 186 178 270 258 530 505 675 651 697 701 24 53 27 156 6
200 -9 19 -33 47 -53 62 -39 30 -77 33 -149 12z"/>
</g>
</svg>
